<svg width="512" height="512" viewBox="0 0 512 512" fill="none" xmlns="http://www.w3.org/2000/svg">
<path d="M377.813 271.147C375.83 269.147 373.47 267.56 370.871 266.477C368.271 265.394 365.483 264.836 362.666 264.836C359.85 264.836 357.062 265.394 354.462 266.477C351.863 267.56 349.503 269.147 347.52 271.147L277.333 341.333V128C277.333 122.342 275.086 116.916 271.085 112.915C267.084 108.914 261.658 106.667 256 106.667C250.342 106.667 244.916 108.914 240.915 112.915C236.914 116.916 234.666 122.342 234.666 128V341.333L164.48 271.147C162.497 269.147 160.137 267.56 157.537 266.477C154.938 265.394 152.149 264.836 149.333 264.836C146.517 264.836 143.729 265.394 141.129 266.477C138.529 267.56 136.17 269.147 134.186 271.147C130.213 275.144 127.983 280.551 127.983 286.187C127.983 291.822 130.213 297.229 134.186 301.227L225.92 392.747C233.885 400.759 244.702 405.286 256 405.333C267.223 405.229 277.954 400.707 285.866 392.747L377.6 301.227C381.602 297.258 383.87 291.867 383.91 286.231C383.95 280.595 381.758 275.172 377.813 271.147Z" fill="#E9A514"/>
</svg>
