<svg width="512" height="512" viewBox="0 0 512 512" fill="none" xmlns="http://www.w3.org/2000/svg">
<path d="M384 256C383.896 244.776 379.374 234.046 371.414 226.133L279.893 134.4C275.896 130.427 270.489 128.196 264.854 128.196C259.218 128.196 253.811 130.427 249.814 134.4C247.814 136.383 246.227 138.743 245.144 141.342C244.061 143.942 243.503 146.73 243.503 149.547C243.503 152.363 244.061 155.151 245.144 157.751C246.227 160.35 247.814 162.71 249.814 164.693L320 234.667H106.667C101.009 234.667 95.5827 236.914 91.5819 240.915C87.5811 244.916 85.3335 250.342 85.3335 256C85.3335 261.658 87.5811 267.084 91.5819 271.085C95.5827 275.086 101.009 277.333 106.667 277.333H320L249.814 347.52C245.796 351.509 243.528 356.93 243.508 362.591C243.488 368.252 245.718 373.689 249.707 377.707C253.696 381.724 259.117 383.992 264.778 384.012C270.439 384.032 275.876 381.802 279.893 377.813L371.414 286.08C379.426 278.115 383.953 267.298 384 256V256Z" fill="#E9A514"/>
</svg>
