<svg width="96" height="95" viewBox="0 0 96 95" fill="none" xmlns="http://www.w3.org/2000/svg">
<path d="M38.6133 82.3691C36.9021 82.5192 35.4501 82.6693 33.9982 82.798C26.4531 83.4199 19.8674 81.7257 14.8893 76.8578C13.3336 75.3352 12.452 73.3623 11.1297 71.6682C9.08141 69.009 6.98125 66.3713 4.72552 63.8194C3.94768 62.9402 2.59943 62.4255 1.56231 61.6749C1.22525 61.4391 1.12154 60.9887 0.888184 60.6242C1.35489 60.474 1.79566 60.2167 2.26237 60.1738C8.22579 59.7235 12.4261 61.9966 15.356 66.0926C19.0118 71.1964 24.3011 73.9842 31.4832 73.9842C33.5574 73.9842 35.6316 73.4052 37.6799 73.0192C38.0689 72.9334 38.5356 72.4402 38.5874 72.0756C38.9504 69.8454 39.2875 67.6151 40.532 65.5779C40.9987 64.8273 41.5432 64.1196 42.0877 63.3476C39.9875 63.0045 37.9651 62.7472 35.9687 62.3397C26.7643 60.4097 19.1674 56.5926 14.7596 49.3442C13.0484 46.5135 12.0891 43.4684 11.9594 40.2946C11.752 35.4052 11.8298 30.4944 13.0225 25.6693C13.8781 22.281 15.4338 19.1287 18.5451 16.684C19.2192 16.1479 19.3489 15.6761 18.9859 14.8612C17.2487 10.851 17.0672 6.77652 18.5451 2.68059C18.8563 1.80135 19.1415 0.922122 19.4526 0C26.5569 1.11512 30.7831 5.08239 34.7501 9.47855C38.8467 6.96953 43.6952 6.75508 48.4141 6.49774C54.0145 6.19752 59.6409 6.26185 65.2154 7.01241C68.1193 7.39842 69.9084 7.89165 72.7345 9.28555C75.1717 7.20542 77.4534 5.10384 79.9684 3.19526C81.9649 1.67269 84.454 0.707674 87.1505 0.193002C87.9024 0.0428889 88.2913 0.107223 88.6024 0.793453C90.7026 5.53273 91.0137 10.2506 88.7061 14.9898C88.395 15.6332 88.4209 16.0835 89.0691 16.5982C92.8027 19.5361 94.514 23.3318 95.0844 27.4278C95.603 31.2235 95.8882 35.0406 95.8882 38.8578C95.8882 44.2833 93.9436 49.2585 89.821 53.526C86.9171 56.5497 83.1576 58.7156 78.9054 60.3454C74.7828 61.9108 70.4788 62.8115 66.0192 63.2833C65.9155 63.3047 65.8118 63.3691 65.6303 63.4334C68.6898 67.0576 69.1824 71.1321 69.1305 75.3567C69.0528 81.5113 69.0787 87.6445 69.1305 93.7991C69.1305 94.7641 68.7935 95 67.6526 95C58.4482 94.9571 49.2438 94.9571 40.0394 95C38.8986 95 38.5356 94.6998 38.5356 93.7777C38.5874 90.4537 38.5615 87.1298 38.5615 83.8059C38.6133 83.3126 38.6133 82.8837 38.6133 82.3691Z" fill="#EAA514"/>
</svg>
