<svg width="512" height="512" viewBox="0 0 512 512" fill="none" xmlns="http://www.w3.org/2000/svg">
<path d="M511.573 43.1574V128.491C511.573 134.149 509.326 139.575 505.325 143.576C501.324 147.576 495.898 149.824 490.24 149.824C484.582 149.824 479.156 147.576 475.155 143.576C471.154 139.575 468.907 134.149 468.907 128.491V73.8134L355.84 186.283C351.806 190.159 346.41 192.295 340.816 192.231C335.222 192.168 329.877 189.909 325.932 185.942C321.987 181.975 319.759 176.617 319.726 171.022C319.694 165.427 321.861 160.044 325.76 156.032L439.253 43.1574H383.573C377.915 43.1574 372.489 40.9097 368.488 36.909C364.488 32.9082 362.24 27.482 362.24 21.824C362.24 16.1661 364.488 10.7399 368.488 6.73908C372.489 2.7383 377.915 0.490692 383.573 0.490692H468.907C480.223 0.490692 491.075 4.98592 499.077 12.9875C507.078 20.989 511.573 31.8415 511.573 43.1574ZM492.267 357.589C504.63 369.986 511.572 386.78 511.572 404.288C511.572 421.796 504.63 438.59 492.267 450.987L472.811 473.387C298.069 640.597 -127.083 215.573 37.6107 40.32L62.1227 18.9867C74.5406 6.97114 91.186 0.321324 108.465 0.472998C125.744 0.624671 142.27 7.56566 154.475 19.7974C155.115 20.4587 194.645 71.8294 194.645 71.8294C206.372 84.1483 212.901 100.511 212.877 117.519C212.853 134.527 206.278 150.871 194.517 163.157L169.792 194.24C183.463 227.458 203.564 257.648 228.939 283.074C254.314 308.5 284.463 328.662 317.653 342.4L348.907 317.547C361.192 305.792 377.532 299.221 394.534 299.197C411.537 299.173 427.896 305.699 440.213 317.419C440.213 317.419 491.605 356.949 492.267 357.589ZM462.933 388.608C462.933 388.608 411.883 349.312 411.221 348.672C406.826 344.314 400.888 341.869 394.699 341.869C388.51 341.869 382.571 344.314 378.176 348.672C377.6 349.227 334.571 383.531 334.571 383.531C331.671 385.839 328.22 387.352 324.558 387.92C320.896 388.489 317.148 388.094 313.685 386.773C270.661 370.774 231.581 345.705 199.101 313.268C166.62 280.832 141.498 241.787 125.44 198.784C124.035 195.288 123.581 191.482 124.125 187.754C124.668 184.025 126.189 180.507 128.533 177.557C128.533 177.557 162.816 134.528 163.392 133.952C167.75 129.557 170.195 123.619 170.195 117.429C170.195 111.24 167.75 105.302 163.392 100.907C162.752 100.267 123.456 49.1947 123.456 49.1947C118.998 45.1921 113.178 43.0462 107.188 43.1969C101.199 43.3476 95.4938 45.7835 91.2427 50.0054L66.7307 71.3387C-53.6747 216.021 314.816 564.096 441.6 444.288L461.056 421.888C465.643 417.679 468.406 411.845 468.756 405.629C469.107 399.414 467.018 393.307 462.933 388.608V388.608Z" fill="#E9A514"/>
</svg>
